Simulation
nRows=43
nColumns=15
endheader
time  TH_x TH_y TH_z SC_y  SC_z  SC_x  AC_y  AC_z  AC_x  GH_y  GH_z  GH_yy  EL_x  PS_y
4.133333333333333  0.000000  0.000000  0.000000  -23.388478333753763  5.301090752088364  19.551885887196214  61.008338045504104  9.35449968600745  2.5201268206094136  50.20398483038467  58.210274302881196  -51.91007905159615  10.954242793970757  120.000000
4.173856209150326  0.000000  0.000000  0.000000  -23.434603235912416  5.019075812813674  19.3164414960816  61.32308121813956  9.116170892836656  2.208453938747536  51.105293523078075  58.069634504072425  -52.91495238449509  10.593488650271524  120.000000
4.2143790849673195  0.000000  0.000000  0.000000  -23.528528177578544  4.735892990023239  19.09709407139302  61.669645471007826  8.896526469912278  1.9402053605070175  52.06225683054296  57.94825216151442  -53.88748276621479  10.249412624158493  120.000000
4.254901960784313  0.000000  0.000000  0.000000  -23.671757875471922  4.454918647624602  18.905154066196918  62.04806576680589  8.701017756186834  1.7192370610457028  53.06007028330524  57.84856288832383  -54.81558235339839  9.93038716937175  120.000000
4.295424836601307  0.000000  0.000000  0.000000  -23.860090004594568  4.18082854831264  18.748515612054923  62.455901711935404  8.531271729573916  1.5471919708500514  54.0826778498606  57.7722030617491  -55.69234877657207  9.642776235589926  120.000000
4.3359477124183  0.000000  0.000000  0.000000  -24.084076047952244  3.9191749971780747  18.63129914203098  62.887636132544756  8.385112579962431  1.4235041524044378  55.11290869118538  57.72003453897912  -56.51502714804029  9.391259870170796  120.000000
4.376470588235294  0.000000  0.000000  0.000000  -24.330595991791693  3.6757026398997303  18.554379780511287  63.33463909253537  8.257521158271171  1.345374190303825  56.133015301832444  57.6917678545056  -57.283068377752855  9.179370291566249  120.000000
4.416993464052287  0.000000  0.000000  0.000000  -24.584953404743963  3.4555447281911915  18.516441737463214  63.78577527928504  8.142095475307817  1.3078870629312982  57.125376734885435  57.68543401747817  -57.99619589616917  9.009866877575611  120.000000
4.45751633986928  0.000000  0.000000  0.000000  -24.8328840130584  3.262604625292353  18.515070895536734  64.22855738223228  8.03242435407702  1.3043251026786253  58.07313058476745  57.697035048601656  -58.65292262319214  8.885225039778527  120.000000
4.498039215686274  0.000000  0.000000  0.000000  -25.062183579394404  3.099138619994053  18.547493011208005  64.65052944583331  7.923087254731828  1.326684798047805  58.961145648776586  57.720740306097426  -59.25013836780808  8.807871118771155  120.000000
4.538562091503268  0.000000  0.000000  0.000000  -25.263785953057496  2.965495268826696  18.61077680303648  65.0408320947045  7.810258129519574  1.366385402351758  59.77725319008226  57.74967781120681  -59.783856082279094  8.779464650670269  120.000000
4.579084967320261  0.000000  0.000000  0.000000  -25.43239808729182  2.8602916410566652  18.702141778127736  65.39158717516558  7.691581780025569  1.415145503193793  60.51344111687268  57.77696144683458  -60.25060204505124  8.799554836776498  120.000000
4.6196078431372545  0.000000  0.000000  0.000000  -25.566778681000162  2.780788600654402  18.819349027348313  65.69875921368845  7.565811134293778  1.4657547451128188  61.166575393410824  57.7968391109357  -60.64896427028733  8.864301236042088  120.000000
4.660130718954248  0.000000  0.000000  0.000000  -25.669445438995396  2.7232273364373056  18.960424084912294  65.96225962822159  7.432919879749052  1.5126901849980627  61.738193629296894  57.805683637074985  -60.98075188152331  8.966069364786001  120.000000
4.700653594771241  0.000000  0.000000  0.000000  -25.74580260676767  2.683371307027532  19.12313300065974  66.1852536813173  7.294069804497125  1.5523727645103182  62.233486424089925  57.80255005437191  -61.25157369217279  9.094235452060081  120.000000
4.741176470588234  0.000000  0.000000  0.000000  -25.803110970350794  2.656930871239661  19.304683926386943  66.37311656542519  7.151299719850041  1.582957300542702  62.659957515425255  57.78919156485442  -61.47065150530955  9.236524022597374  120.000000
4.781699346405228  0.000000  0.000000  0.000000  -25.84944644349884  2.6398565859700858  19.501575629576298  66.53232741054335  7.007191744919307  1.603910845418485  63.02609927714575  57.769587782062864  -61.649936098543485  9.380212063371284  120.000000
4.822222222222222  0.000000  0.000000  0.000000  -25.892626789051704  2.628605401525002  19.709616047033418  66.6694495387914  6.864564773855483  1.6156601384213227  63.34019609167641  57.74898539582582  -61.802616360707475  9.512998961139507  120.000000
4.862745098039215  0.000000  0.000000  0.000000  -25.9391173919158  2.6203044813523326  19.924020188748027  66.79024191223355  6.726236931625887  1.6192051947502717  63.60921135971645  57.73254687845472  -61.94116393601792  9.62404630714815  120.000000
4.903267973856209  0.000000  0.000000  0.000000  -25.992992163199606  2.612895715556377  20.139497792931934  66.89880639869585  6.594853936890278  1.6157649785682104  63.837754793695105  57.723675600691635  -62.075111866369575  9.705496336025474  120.000000
4.943790849673202  0.000000  0.000000  0.000000  -26.055196829502098  2.6053027532084503  20.350322881763905  66.99685366769052  6.472757192478383  1.6064455970596574  64.02734221424639  57.72247551874138  -62.209129305679106  9.753966981413463  120.000000
4.984313725490195  0.000000  0.000000  0.000000  -26.12345383999473  2.5973886772350196  20.55040502709398  67.08336234745599  6.361909035081023  1.591906153735594  64.17623857125716  57.72499348583342  -62.34202140184622  9.771084869097558  120.000000
5.024836601307189  0.000000  0.000000  0.000000  -26.192720043798733  2.5898907725087743  20.733293183474206  67.15463665510276  6.2639946357063705  1.5722323902496333  64.27993518071898  57.723581962794434  -62.46696397514734  9.762568530646494  120.000000
5.065359477124183  0.000000  0.000000  0.000000  -26.255978028313194  2.584356708421122  20.892287619609093  67.20467802067736  6.180548853808237  1.5469983977981723  64.33188809361607  57.70817312669152  -62.57255008770576  9.736575291640863  120.000000
5.105882352941176  0.000000  0.000000  0.000000  -26.305212220740668  2.583057610644411  21.020643287789916  67.22575701836938  6.113090726613188  1.5154165923198555  64.32414270341556  57.66805608633005  -62.64393946180664  9.702391871064572  120.000000
5.146405228758169  0.000000  0.000000  0.000000  -26.33236933833489  2.589026761573274  21.11190863535864  67.20903315865677  6.063296593843949  1.4767507139491354  64.24770865783131  57.59376592013969  -62.66368141415419  9.669626276170032  120.000000
5.186928104575163  0.000000  0.000000  0.000000  -26.33020065903523  2.6060539674496237  21.16054412163152  67.1454655236953  6.033347567948998  1.4309867544124948  64.09261169374012  57.47893358077795  -62.61208659824451  9.64717123834699  120.000000
5.227450980392156  0.000000  0.000000  0.000000  -26.29308854058424  2.6385561869116705  21.16294709850446  67.02703952542612  6.026381642176095  1.379651028367399  63.84782887559888  57.321734197987276  -62.46708315676908  9.641834260278856  120.000000
5.267973856209149  0.000000  0.000000  0.000000  -26.217797566339538  2.6910793112145197  21.11846096066065  66.84809025700066  6.046979999750496  1.326344914909075  63.50111963718268  57.125757780951055  -62.203778402471144  9.657244124365619  120.000000
5.308496732026143  0.000000  0.000000  0.000000  -26.10375391671259  2.768105427455932  21.029827471576567  66.60610458995387  6.101455100361648  1.277273806057259  63.038802672290224  56.90002846382681  -61.79435100112977  9.693291709902036  120.000000
5.349019607843137  0.000000  0.000000  0.000000  -25.95314090808995  2.874047739898462  20.9031048782418  66.30188189455123  6.197257780581669  1.2412590706533244  62.446107940516185  56.65810831441916  -61.208588283343595  9.74681048422468  120.000000
5.38954248366013  0.000000  0.000000  0.000000  -25.770929896907482  3.012837569001648  20.746125972351017  65.93930516422697  6.342154059428322  1.229152328135837  61.7083814853184  56.41658233246775  -60.41504213372812  9.813485140544072  120.000000
5.4300653594771235  0.000000  0.000000  0.000000  -25.564339384937583  3.1883122923491287  20.567285273528636  65.52445192456041  6.542717226364967  1.2533828431645453  60.812896805992565  56.19318942104408  -59.383178096411434  9.88904211981889  120.000000
5.470588235294117  0.000000  0.000000  0.000000  -25.342132348098193  3.4042597549399596  20.376077796235677  65.06472994908577  6.80238420687817  1.32678051399124  59.75058479309191  56.005053477792025  -58.08621188293441  9.969398501087827  120.000000
5.51111111111111  0.000000  0.000000  0.000000  -25.113693519667933  3.6630144282015737  20.18298023045241  64.56846432671061  7.120686211355621  1.4605393982154524  58.51753894451386  55.86746996377739  -56.50533553626561  10.051138414275174  120.000000
5.5516339869281035  0.000000  0.000000  0.000000  -24.887562105302813  3.9647673618809907  19.998065765483677  64.04423818936613  7.4924011649631215  1.662701119601708  57.11674105927695  55.79358290912611  -54.634840640600466  10.13225042872048  120.000000
5.592156862745098  0.000000  0.000000  0.000000  -24.670250856559452  4.3073204492986825  19.830077358074366  63.50046642827028  7.906526897602493  1.9370144256663837  55.559904265728065  55.79453875064705  -52.486994902981905  10.212864853682136  120.000000
5.632679738562091  0.000000  0.000000  0.000000  -24.46559261526526  4.686301276454468  19.68602501922997  62.94525829975961  8.346915881427403  2.2823102548860126  53.86850286738813  55.87955578174452  -50.09444110361739  10.295374013544635  120.000000
5.673202614379084  0.000000  0.000000  0.000000  -24.275295616848883  5.095935719999051  19.57249230441228  62.386867530849464  8.793574201589148  2.6922174571468727  52.074010509548195  56.05564676342479  -47.50944578818902  10.383038692188723  120.000000
5.713725490196078  0.000000  0.000000  0.000000  -24.101250948722107  5.52854981960663  19.496220747818022  61.83513854800884  9.225240593548596  3.155376244636872  50.217386038465854  56.32754692292795  -44.801007862596144  10.478879074533104  120.000000
5.754248366013071  0.000000  0.000000  0.000000  -23.94771820577816  5.975262421084097  19.461377138683197  61.301808284640266  9.624344521239749  3.6585744109737224  48.3482914715145  56.69725586402189  -42.05086220500562  10.586043873205119  120.000000
5.794771241830064  0.000000  0.000000  0.000000  -23.82184655960349  6.4270888730160936  19.470419828266646  60.80057148503183  9.978793305892173  4.189201044450885  46.52393551624496  57.163000292450484  -39.34990715094487  10.70765819986451  120.000000
5.835294117647058  0.000000  0.000000  0.000000  -23.733638919396597  6.873565283399792  19.5274115522376  60.34818114066761  10.281673297488075  4.734488604092102  44.80663993696114  57.71724819685648  -36.79465637290508  10.848453163362306  120.000000
